{
  "accessors": [
    {
      "bufferView": 2,
      "componentType": 5126,
      "count": 65532,
      "max": [
        -0.9233800768852234,
        0.2381928414106369,
        0.45197880268096924
      ],
      "min": [
        -1.0408399105072021,
        0.1002427414059639,
        0.32523423433303833
      ],
      "type": "VEC3"
    },
    {
      "bufferView": 2,
      "byteOffset": 786384,
      "componentType": 5126,
      "count": 65532,
      "max": [
        0.9999151229858398,
        0.9999273419380188,
        0.9997342228889465
      ],
      "min": [
        -0.9999926686286926,
        -0.9999019503593445,
        -0.9999073147773743
      ],
      "type": "VEC3"
    },
    {
      "bufferView": 1,
      "componentType": 5126,
      "count": 65532,
      "max": [
        0.9997451901435852,
        0.8444823026657104
      ],
      "min": [
        0.000244140625,
        0.00024547113571316004
      ],
      "type": "VEC2"
    },
    {
      "bufferView": 1,
      "byteOffset": 524256,
      "componentType": 5126,
      "count": 65532,
      "max": [
        0.9997451901435852,
        0.8444823026657104
      ],
      "min": [
        0.000244140625,
        0.00024547113571316004
      ],
      "type": "VEC2"
    },
    {
      "bufferView": 0,
      "componentType": 5125,
      "count": 285996,
      "type": "SCALAR"
    },
    {
      "bufferView": 2,
      "byteOffset": 1572768,
      "componentType": 5126,
      "count": 65532,
      "max": [
        -0.8793550133705139,
        0.4215705990791321,
        0.49419665336608887
      ],
      "min": [
        -1.1193656921386719,
        0.07128377258777618,
        0.32197433710098267
      ],
      "type": "VEC3"
    },
    {
      "bufferView": 2,
      "byteOffset": 2359152,
      "componentType": 5126,
      "count": 65532,
      "max": [
        0.9999698996543884,
        0.9989916086196899,
        0.9849552512168884
      ],
      "min": [
        -0.9998682737350464,
        -0.9996969103813171,
        -0.9999973773956299
      ],
      "type": "VEC3"
    },
    {
      "bufferView": 1,
      "byteOffset": 1048512,
      "componentType": 5126,
      "count": 65532,
      "max": [
        0.9995790719985962,
        0.8435057401657104
      ],
      "min": [
        0.000244140625,
        0.00024463667068630457
      ],
      "type": "VEC2"
    },
    {
      "bufferView": 1,
      "byteOffset": 1572768,
      "componentType": 5126,
      "count": 65532,
      "max": [
        0.9995790719985962,
        0.8435057401657104
      ],
      "min": [
        0.000244140625,
        0.00024463667068630457
      ],
      "type": "VEC2"
    },
    {
      "bufferView": 0,
      "byteOffset": 1143984,
      "componentType": 5125,
      "count": 277635,
      "type": "SCALAR"
    },
    {
      "bufferView": 2,
      "byteOffset": 3145536,
      "componentType": 5126,
      "count": 65532,
      "max": [
        -0.768110990524292,
        0.4256483018398285,
        0.4954379200935364
      ],
      "min": [
        -1.1245152950286865,
        -0.0004725903272628784,
        0.2896297574043274
      ],
      "type": "VEC3"
    },
    {
      "bufferView": 2,
      "byteOffset": 3931920,
      "componentType": 5126,
      "count": 65532,
      "max": [
        0.9993772506713867,
        0.9994790554046631,
        0.9999944567680359
      ],
      "min": [
        -0.9982345104217529,
        -0.9997276663780212,
        -0.9999997019767761
      ],
      "type": "VEC3"
    },
    {
      "bufferView": 1,
      "byteOffset": 2097024,
      "componentType": 5126,
      "count": 65532,
      "max": [
        0.9997557997703552,
        0.8513182401657104
      ],
      "min": [
        0.000244140625,
        0.00024547113571316004
      ],
      "type": "VEC2"
    },
    {
      "bufferView": 1,
      "byteOffset": 2621280,
      "componentType": 5126,
      "count": 65532,
      "max": [
        0.9997557997703552,
        0.8513182401657104
      ],
      "min": [
        0.000244140625,
        0.00024547113571316004
      ],
      "type": "VEC2"
    },
    {
      "bufferView": 0,
      "byteOffset": 2254524,
      "componentType": 5125,
      "count": 299328,
      "type": "SCALAR"
    },
    {
      "bufferView": 2,
      "byteOffset": 4718304,
      "componentType": 5126,
      "count": 65532,
      "max": [
        -0.7988269925117493,
        0.3156188726425171,
        0.4938962757587433
      ],
      "min": [
        -1.0141193866729736,
        0.024939298629760742,
        0.3942193388938904
      ],
      "type": "VEC3"
    },
    {
      "bufferView": 2,
      "byteOffset": 5504688,
      "componentType": 5126,
      "count": 65532,
      "max": [
        0.9993478655815125,
        0.949153482913971,
        0.9858126640319824
      ],
      "min": [
        -0.9999008774757385,
        -0.9998874664306641,
        -0.9999998807907104
      ],
      "type": "VEC3"
    },
    {
      "bufferView": 1,
      "byteOffset": 3145536,
      "componentType": 5126,
      "count": 65532,
      "max": [
        0.9997511506080627,
        0.8728574514389038
      ],
      "min": [
        0.000244140625,
        0.0002889825263991952
      ],
      "type": "VEC2"
    },
    {
      "bufferView": 1,
      "byteOffset": 3669792,
      "componentType": 5126,
      "count": 65532,
      "max": [
        0.9997511506080627,
        0.8728574514389038
      ],
      "min": [
        0.000244140625,
        0.0002889825263991952
      ],
      "type": "VEC2"
    },
    {
      "bufferView": 0,
      "byteOffset": 3451836,
      "componentType": 5125,
      "count": 312846,
      "type": "SCALAR"
    },
    {
      "bufferView": 2,
      "byteOffset": 6291072,
      "componentType": 5126,
      "count": 65532,
      "max": [
        -0.9142604470252991,
        0.3246060609817505,
        0.47904592752456665
      ],
      "min": [
        -1.0559041500091553,
        0.06428438425064087,
        0.3932918310165405
      ],
      "type": "VEC3"
    },
    {
      "bufferView": 2,
      "byteOffset": 7077456,
      "componentType": 5126,
      "count": 65532,
      "max": [
        0.9999513030052185,
        0.999757707118988,
        0.9999181628227234
      ],
      "min": [
        -0.9999008774757385,
        -0.9998446702957153,
        -0.9999988079071045
      ],
      "type": "VEC3"
    },
    {
      "bufferView": 1,
      "byteOffset": 4194048,
      "componentType": 5126,
      "count": 65532,
      "max": [
        0.9997297525405884,
        0.8405760526657104
      ],
      "min": [
        0.000244140625,
        0.00026180280838161707
      ],
      "type": "VEC2"
    },
    {
      "bufferView": 1,
      "byteOffset": 4718304,
      "componentType": 5126,
      "count": 65532,
      "max": [
        0.9997297525405884,
        0.8405760526657104
      ],
      "min": [
        0.000244140625,
        0.00026180280838161707
      ],
      "type": "VEC2"
    },
    {
      "bufferView": 0,
      "byteOffset": 4703220,
      "componentType": 5125,
      "count": 245058,
      "type": "SCALAR"
    },
    {
      "bufferView": 2,
      "byteOffset": 7863840,
      "componentType": 5126,
      "count": 65532,
      "max": [
        -0.861389696598053,
        0.33295875787734985,
        0.4782298803329468
      ],
      "min": [
        -1.0379232168197632,
        0.10433565825223923,
        0.33546537160873413
      ],
      "type": "VEC3"
    },
    {
      "bufferView": 2,
      "byteOffset": 8650224,
      "componentType": 5126,
      "count": 65532,
      "max": [
        0.9998169541358948,
        0.9999818205833435,
        0.999427080154419
      ],
      "min": [
        -0.9998152852058411,
        -0.9999381899833679,
        -0.9999960660934448
      ],
      "type": "VEC3"
    },
    {
      "bufferView": 1,
      "byteOffset": 5242560,
      "componentType": 5126,
      "count": 65532,
      "max": [
        0.9997028708457947,
        0.8591307401657104
      ],
      "min": [
        0.000244140625,
        0.00024868978653103113
      ],
      "type": "VEC2"
    },
    {
      "bufferView": 1,
      "byteOffset": 5766816,
      "componentType": 5126,
      "count": 65532,
      "max": [
        0.9997028708457947,
        0.8591307401657104
      ],
      "min": [
        0.000244140625,
        0.00024868978653103113
      ],
      "type": "VEC2"
    },
    {
      "bufferView": 0,
      "byteOffset": 5683452,
      "componentType": 5125,
      "count": 233373,
      "type": "SCALAR"
    },
    {
      "bufferView": 2,
      "byteOffset": 9436608,
      "componentType": 5126,
      "count": 65532,
      "max": [
        -0.9275182485580444,
        0.27449727058410645,
        0.43060508370399475
      ],
      "min": [
        -1.0359067916870117,
        0.0764850303530693,
        0.33652275800704956
      ],
      "type": "VEC3"
    },
    {
      "bufferView": 2,
      "byteOffset": 10222992,
      "componentType": 5126,
      "count": 65532,
      "max": [
        0.9999138712882996,
        0.9999503493309021,
        0.9996979832649231
      ],
      "min": [
        -0.9997148513793945,
        -0.9999977350234985,
        -0.9999971985816956
      ],
      "type": "VEC3"
    },
    {
      "bufferView": 1,
      "byteOffset": 6291072,
      "componentType": 5126,
      "count": 65532,
      "max": [
        0.9997531175613403,
        0.8499698638916016
      ],
      "min": [
        0.000244140625,
        0.0002469016471877694
      ],
      "type": "VEC2"
    },
    {
      "bufferView": 1,
      "byteOffset": 6815328,
      "componentType": 5126,
      "count": 65532,
      "max": [
        0.9997531175613403,
        0.8499698638916016
      ],
      "min": [
        0.000244140625,
        0.0002469016471877694
      ],
      "type": "VEC2"
    },
    {
      "bufferView": 0,
      "byteOffset": 6616944,
      "componentType": 5125,
      "count": 240573,
      "type": "SCALAR"
    },
    {
      "bufferView": 2,
      "byteOffset": 11009376,
      "componentType": 5126,
      "count": 65534,
      "max": [
        -0.9028059244155884,
        0.16073986887931824,
        0.49395158886909485
      ],
      "min": [
        -1.0949835777282715,
        -0.0003820955753326416,
        0.35133570432662964
      ],
      "type": "VEC3"
    },
    {
      "bufferView": 2,
      "byteOffset": 11795784,
      "componentType": 5126,
      "count": 65534,
      "max": [
        0.9999391436576843,
        0.9997798800468445,
        0.9900348782539368
      ],
      "min": [
        -0.9999926686286926,
        -0.99928879737854,
        -0.9999991059303284
      ],
      "type": "VEC3"
    },
    {
      "bufferView": 1,
      "byteOffset": 7339584,
      "componentType": 5126,
      "count": 65534,
      "max": [
        0.9997486472129822,
        0.9782713651657104
      ],
      "min": [
        0.000244140625,
        0.00024660362396389246
      ],
      "type": "VEC2"
    },
    {
      "bufferView": 1,
      "byteOffset": 7863856,
      "componentType": 5126,
      "count": 65534,
      "max": [
        0.9997486472129822,
        0.9782713651657104
      ],
      "min": [
        0.000244140625,
        0.00024660362396389246
      ],
      "type": "VEC2"
    },
    {
      "bufferView": 0,
      "byteOffset": 7579236,
      "componentType": 5125,
      "count": 264006,
      "type": "SCALAR"
    },
    {
      "bufferView": 2,
      "byteOffset": 12582192,
      "componentType": 5126,
      "count": 65532,
      "max": [
        -0.9480037093162537,
        0.16245776414871216,
        0.49200761318206787
      ],
      "min": [
        -1.0917235612869263,
        0.026698648929595947,
        0.33910447359085083
      ],
      "type": "VEC3"
    },
    {
      "bufferView": 2,
      "byteOffset": 13368576,
      "componentType": 5126,
      "count": 65532,
      "max": [
        0.9999198913574219,
        0.9999505877494812,
        0.9997724890708923
      ],
      "min": [
        -0.9998083114624023,
        -0.9999478459358215,
        -0.9999978542327881
      ],
      "type": "VEC3"
    },
    {
      "bufferView": 1,
      "byteOffset": 8388128,
      "componentType": 5126,
      "count": 65532,
      "max": [
        0.999741792678833,
        0.8425291776657104
      ],
      "min": [
        0.000244140625,
        0.0002463056007400155
      ],
      "type": "VEC2"
    },
    {
      "bufferView": 1,
      "byteOffset": 8912384,
      "componentType": 5126,
      "count": 65532,
      "max": [
        0.999741792678833,
        0.8425291776657104
      ],
      "min": [
        0.000244140625,
        0.0002463056007400155
      ],
      "type": "VEC2"
    },
    {
      "bufferView": 0,
      "byteOffset": 8635260,
      "componentType": 5125,
      "count": 225783,
      "type": "SCALAR"
    },
    {
      "bufferView": 2,
      "byteOffset": 14154960,
      "componentType": 5126,
      "count": 65532,
      "max": [
        -0.7744202613830566,
        0.3574848175048828,
        0.4874531328678131
      ],
      "min": [
        -1.0925166606903076,
        0.024639934301376343,
        0.37421807646751404
      ],
      "type": "VEC3"
    },
    {
      "bufferView": 2,
      "byteOffset": 14941344,
      "componentType": 5126,
      "count": 65532,
      "max": [
        0.9999844431877136,
        0.9999818205833435,
        0.9962904453277588
      ],
      "min": [
        -0.9999721646308899,
        -0.9999766945838928,
        -1.0
      ],
      "type": "VEC3"
    },
    {
      "bufferView": 1,
      "byteOffset": 9436640,
      "componentType": 5126,
      "count": 65532,
      "max": [
        0.999746561050415,
        0.8435057401657104
      ],
      "min": [
        0.000244140625,
        0.00024868978653103113
      ],
      "type": "VEC2"
    },
    {
      "bufferView": 1,
      "byteOffset": 9960896,
      "componentType": 5126,
      "count": 65532,
      "max": [
        0.999746561050415,
        0.8435057401657104
      ],
      "min": [
        0.000244140625,
        0.00024868978653103113
      ],
      "type": "VEC2"
    },
    {
      "bufferView": 0,
      "byteOffset": 9538392,
      "componentType": 5125,
      "count": 250149,
      "type": "SCALAR"
    },
    {
      "bufferView": 2,
      "byteOffset": 15727728,
      "componentType": 5126,
      "count": 65532,
      "max": [
        -0.7702990770339966,
        0.4047831892967224,
        0.490444540977478
      ],
      "min": [
        -0.9802822470664978,
        0.23913943767547607,
        0.3977857530117035
      ],
      "type": "VEC3"
    },
    {
      "bufferView": 2,
      "byteOffset": 16514112,
      "componentType": 5126,
      "count": 65532,
      "max": [
        0.9998697638511658,
        0.9999618530273438,
        0.9952027797698975
      ],
      "min": [
        -0.999564528465271,
        -0.9994431734085083,
        -0.9999967813491821
      ],
      "type": "VEC3"
    },
    {
      "bufferView": 1,
      "byteOffset": 10485152,
      "componentType": 5126,
      "count": 65532,
      "max": [
        0.9996787309646606,
        0.8405760526657104
      ],
      "min": [
        0.000244140625,
        0.0002469016471877694
      ],
      "type": "VEC2"
    },
    {
      "bufferView": 1,
      "byteOffset": 11009408,
      "componentType": 5126,
      "count": 65532,
      "max": [
        0.9996787309646606,
        0.8405760526657104
      ],
      "min": [
        0.000244140625,
        0.0002469016471877694
      ],
      "type": "VEC2"
    },
    {
      "bufferView": 0,
      "byteOffset": 10538988,
      "componentType": 5125,
      "count": 258693,
      "type": "SCALAR"
    },
    {
      "bufferView": 2,
      "byteOffset": 17300496,
      "componentType": 5126,
      "count": 35920,
      "max": [
        -0.8315265774726868,
        0.4047319293022156,
        0.49002933502197266
      ],
      "min": [
        -0.9927642941474915,
        0.17858512699604034,
        0.33525264263153076
      ],
      "type": "VEC3"
    },
    {
      "bufferView": 2,
      "byteOffset": 17731536,
      "componentType": 5126,
      "count": 35920,
      "max": [
        0.9997370839118958,
        0.9999881982803345,
        0.9999444484710693
      ],
      "min": [
        -0.9998686909675598,
        -0.999867856502533,
        -0.9999725222587585
      ],
      "type": "VEC3"
    },
    {
      "bufferView": 1,
      "byteOffset": 11533664,
      "componentType": 5126,
      "count": 35920,
      "max": [
        0.9997318387031555,
        0.8395994901657104
      ],
      "min": [
        0.000244140625,
        0.00024463667068630457
      ],
      "type": "VEC2"
    },
    {
      "bufferView": 1,
      "byteOffset": 11821024,
      "componentType": 5126,
      "count": 35920,
      "max": [
        0.9997318387031555,
        0.8395994901657104
      ],
      "min": [
        0.000244140625,
        0.00024463667068630457
      ],
      "type": "VEC2"
    },
    {
      "bufferView": 0,
      "byteOffset": 11573760,
      "componentType": 5125,
      "count": 106242,
      "type": "SCALAR"
    }
  ],
  "asset": {
    "extras": {
      "author": "Ely HADDAD (https://sketchfab.com/ElyHADDAD29)",
      "license": "CC-BY-4.0 (http://creativecommons.org/licenses/by/4.0/)",
      "source": "https://sketchfab.com/3d-models/nike-air-max-270-scan-02-23c16f0235aa46fb8cdbbeea2194847f",
      "title": "Nike Air Max 270 Scan 02"
    },
    "generator": "Sketchfab-14.64.0",
    "version": "2.0"
  },
  "bufferViews": [
    {
      "buffer": 0,
      "byteLength": 11998728,
      "name": "floatBufferViews",
      "target": 34963
    },
    {
      "buffer": 0,
      "byteLength": 12108384,
      "byteOffset": 11998728,
      "byteStride": 8,
      "name": "floatBufferViews",
      "target": 34962
    },
    {
      "buffer": 0,
      "byteLength": 18162576,
      "byteOffset": 24107112,
      "byteStride": 12,
      "name": "floatBufferViews",
      "target": 34962
    }
  ],
  "buffers": [
    {
      "byteLength": 42269688,
      "uri": "scene.bin"
    }
  ],
  "extensionsUsed": [
    "KHR_materials_unlit"
  ],
  "images": [
    {
      "uri": "textures/tex_u1_v1_baseColor.jpeg"
    }
  ],
  "materials": [
    {
      "doubleSided": true,
      "extensions": {
        "KHR_materials_unlit": {}
      },
      "name": "tex_u1_v1",
      "pbrMetallicRoughness": {
        "baseColorTexture": {
          "index": 0
        },
        "metallicFactor": 0.0
      }
    }
  ],
  "meshes": [
    {
      "name": "model_tex_u1_v1_0",
      "primitives": [
        {
          "attributes": {
            "NORMAL": 1,
            "POSITION": 0,
            "TEXCOORD_0": 2,
            "TEXCOORD_1": 3
          },
          "indices": 4,
          "material": 0,
          "mode": 4
        }
      ]
    },
    {
      "name": "model_tex_u1_v1_0",
      "primitives": [
        {
          "attributes": {
            "NORMAL": 6,
            "POSITION": 5,
            "TEXCOORD_0": 7,
            "TEXCOORD_1": 8
          },
          "indices": 9,
          "material": 0,
          "mode": 4
        }
      ]
    },
    {
      "name": "model_tex_u1_v1_0",
      "primitives": [
        {
          "attributes": {
            "NORMAL": 11,
            "POSITION": 10,
            "TEXCOORD_0": 12,
            "TEXCOORD_1": 13
          },
          "indices": 14,
          "material": 0,
          "mode": 4
        }
      ]
    },
    {
      "name": "model_tex_u1_v1_0",
      "primitives": [
        {
          "attributes": {
            "NORMAL": 16,
            "POSITION": 15,
            "TEXCOORD_0": 17,
            "TEXCOORD_1": 18
          },
          "indices": 19,
          "material": 0,
          "mode": 4
        }
      ]
    },
    {
      "name": "model_tex_u1_v1_0",
      "primitives": [
        {
          "attributes": {
            "NORMAL": 21,
            "POSITION": 20,
            "TEXCOORD_0": 22,
            "TEXCOORD_1": 23
          },
          "indices": 24,
          "material": 0,
          "mode": 4
        }
      ]
    },
    {
      "name": "model_tex_u1_v1_0",
      "primitives": [
        {
          "attributes": {
            "NORMAL": 26,
            "POSITION": 25,
            "TEXCOORD_0": 27,
            "TEXCOORD_1": 28
          },
          "indices": 29,
          "material": 0,
          "mode": 4
        }
      ]
    },
    {
      "name": "model_tex_u1_v1_0",
      "primitives": [
        {
          "attributes": {
            "NORMAL": 31,
            "POSITION": 30,
            "TEXCOORD_0": 32,
            "TEXCOORD_1": 33
          },
          "indices": 34,
          "material": 0,
          "mode": 4
        }
      ]
    },
    {
      "name": "model_tex_u1_v1_0",
      "primitives": [
        {
          "attributes": {
            "NORMAL": 36,
            "POSITION": 35,
            "TEXCOORD_0": 37,
            "TEXCOORD_1": 38
          },
          "indices": 39,
          "material": 0,
          "mode": 4
        }
      ]
    },
    {
      "name": "model_tex_u1_v1_0",
      "primitives": [
        {
          "attributes": {
            "NORMAL": 41,
            "POSITION": 40,
            "TEXCOORD_0": 42,
            "TEXCOORD_1": 43
          },
          "indices": 44,
          "material": 0,
          "mode": 4
        }
      ]
    },
    {
      "name": "model_tex_u1_v1_0",
      "primitives": [
        {
          "attributes": {
            "NORMAL": 46,
            "POSITION": 45,
            "TEXCOORD_0": 47,
            "TEXCOORD_1": 48
          },
          "indices": 49,
          "material": 0,
          "mode": 4
        }
      ]
    },
    {
      "name": "model_tex_u1_v1_0",
      "primitives": [
        {
          "attributes": {
            "NORMAL": 51,
            "POSITION": 50,
            "TEXCOORD_0": 52,
            "TEXCOORD_1": 53
          },
          "indices": 54,
          "material": 0,
          "mode": 4
        }
      ]
    },
    {
      "name": "model_tex_u1_v1_0",
      "primitives": [
        {
          "attributes": {
            "NORMAL": 56,
            "POSITION": 55,
            "TEXCOORD_0": 57,
            "TEXCOORD_1": 58
          },
          "indices": 59,
          "material": 0,
          "mode": 4
        }
      ]
    }
  ],
  "nodes": [
    {
      "children": [
        1
      ],
      "matrix": [
        1.0,
        0.0,
        0.0,
        0.0,
        0.0,
        2.220446049250313e-16,
        -1.0,
        0.0,
        0.0,
        1.0,
        2.220446049250313e-16,
        0.0,
        0.0,
        0.0,
        0.0,
        1.0
      ],
      "name": "Sketchfab_model"
    },
    {
      "children": [
        2
      ],
      "matrix": [
        1.0,
        0.0,
        0.0,
        0.0,
        0.0,
        -1.0,
        0.0,
        0.0,
        0.0,
        0.0,
        -1.0,
        0.0,
        0.0,
        0.0,
        0.0,
        1.0
      ],
      "name": "model.fbx"
    },
    {
      "children": [
        3
      ],
      "name": "RootNode"
    },
    {
      "children": [
        4,
        5,
        6,
        7,
        8,
        9,
        10,
        11,
        12,
        13,
        14,
        15
      ],
      "name": "model"
    },
    {
      "mesh": 0,
      "name": "model_tex_u1_v1_0"
    },
    {
      "mesh": 1,
      "name": "model_tex_u1_v1_0"
    },
    {
      "mesh": 2,
      "name": "model_tex_u1_v1_0"
    },
    {
      "mesh": 3,
      "name": "model_tex_u1_v1_0"
    },
    {
      "mesh": 4,
      "name": "model_tex_u1_v1_0"
    },
    {
      "mesh": 5,
      "name": "model_tex_u1_v1_0"
    },
    {
      "mesh": 6,
      "name": "model_tex_u1_v1_0"
    },
    {
      "mesh": 7,
      "name": "model_tex_u1_v1_0"
    },
    {
      "mesh": 8,
      "name": "model_tex_u1_v1_0"
    },
    {
      "mesh": 9,
      "name": "model_tex_u1_v1_0"
    },
    {
      "mesh": 10,
      "name": "model_tex_u1_v1_0"
    },
    {
      "mesh": 11,
      "name": "model_tex_u1_v1_0"
    }
  ],
  "samplers": [
    {
      "magFilter": 9729,
      "minFilter": 9987,
      "wrapS": 10497,
      "wrapT": 10497
    }
  ],
  "scene": 0,
  "scenes": [
    {
      "name": "Sketchfab_Scene",
      "nodes": [
        0
      ]
    }
  ],
  "textures": [
    {
      "sampler": 0,
      "source": 0
    }
  ]
}
